<?xml version="1.0" encoding="UTF-8" standalone="no"?>
<svg
   xmlns:dc="http://purl.org/dc/elements/1.1/"
   xmlns:cc="http://creativecommons.org/ns#"
   xmlns:rdf="http://www.w3.org/1999/02/22-rdf-syntax-ns#"
   xmlns:svg="http://www.w3.org/2000/svg"
   xmlns="http://www.w3.org/2000/svg"
   xmlns:sodipodi="http://sodipodi.sourceforge.net/DTD/sodipodi-0.dtd"
   xmlns:inkscape="http://www.inkscape.org/namespaces/inkscape"
   id="Capa_1"
   enable-background="new 0 0 512 512"
   height="512"
   viewBox="0 0 512 512"
   width="512"
   version="1.1"
   sodipodi:docname="hat.svg"
   inkscape:version="0.92.4 (5da689c313, 2019-01-14)">
  <metadata
     id="metadata17">
    <rdf:RDF>
      <cc:Work
         rdf:about="">
        <dc:format>image/svg+xml</dc:format>
        <dc:type
           rdf:resource="http://purl.org/dc/dcmitype/StillImage" />
        <dc:title></dc:title>
      </cc:Work>
    </rdf:RDF>
  </metadata>
  <defs
     id="defs15" />
  <sodipodi:namedview
     pagecolor="#ffffff"
     bordercolor="#666666"
     borderopacity="1"
     objecttolerance="10"
     gridtolerance="10"
     guidetolerance="10"
     inkscape:pageopacity="0"
     inkscape:pageshadow="2"
     inkscape:window-width="934"
     inkscape:window-height="830"
     id="namedview13"
     showgrid="false"
     inkscape:zoom="1.3037281"
     inkscape:cx="209.08019"
     inkscape:cy="195.36453"
     inkscape:window-x="0"
     inkscape:window-y="0"
     inkscape:window-maximized="0"
     inkscape:current-layer="Capa_1" />
  <path
     d="M 434.56,277.757 C 429.42,235.388 414.746,140.612 383.178,104.262 175.63432,101.9619 371.43953,147.32134 245.51803,130.76737 153.2103,118.63235 162.22566,68.731322 119.59366,121.61793 88.024661,157.96893 82.572,235.392 77.432,277.759 34.156,292.575 7.514,312.758 7.514,335.005 c 0,45.47 111.251,95.183 248.485,95.183 137.234,0 248.485,-49.713 248.485,-95.183 0.001,-22.248 -26.644,-42.432 -69.924,-57.248 z"
     id="path2"
     style="fill:#000000"
     inkscape:connector-curvature="0"
     sodipodi:nodetypes="ccsccsscc" />
  <path
     d="m256 412.153c-128.121 0-233.58-43.329-247.024-86.083-.956 2.936-1.462 5.916-1.462 8.936 0 45.47 111.251 95.183 248.485 95.183s248.485-49.713 248.485-95.183c0-3.02-.505-6-1.461-8.936-13.444 42.754-118.902 86.083-247.023 86.083z"
     fill="#ca6d36"
     id="path4"
     style="fill:#1a1a1a" />
  <path
     d="m431.882 257.612c-18.977 24.587-90.516 42.871-175.882 42.871-85.375 0-156.92-18.287-175.888-42.878-2.61 18.069-4.072 32.086-4.644 38.038-.187 1.04-.29 2.087-.29 3.142 0 30.864 80.957 55.884 180.822 55.884s180.822-25.02 180.822-55.884c0-1.077-.109-2.146-.303-3.208-.578-5.99-2.037-19.968-4.637-37.965z"
     id="path6"
     style="fill:#4d4d4d"
     fill="#ffe55a" />
  <path
     d="m435.643 287.126c-10.243 27.86-86.757 49.507-179.643 49.507-92.903 0-169.428-21.654-179.649-49.522-.399 3.638-.692 6.543-.884 8.531-.187 1.04-.29 2.087-.29 3.142 0 30.864 80.957 55.884 180.822 55.884s180.822-25.02 180.822-55.884c0-1.077-.109-2.146-.303-3.208-.191-1.984-.481-4.859-.875-8.45z"
     fill="#ffd500"
     id="path8"
     style="fill:#4d4d4d;stroke:#4f4f4f;stroke-opacity:1" />
  <path
     d="M 441.45,272.211 C 435.692,226.697 418.30991,167.35228 411.0959,113.9086 405.85828,89.60928 393.62452,62.880932 374.85152,62.664932 324.53463,63.974624 241.93491,132.79393 218.08577,126.17203 c -13.215,4.788 -13.46622,48.88319 -25.03422,48.88319 -11.568,0 -16.3767,-14.37004 -29.5927,-19.15804 -14.859,-5.382 1.19674,-56.827027 -14.82326,-56.646027 -24.37498,-3.210202 -36.45283,15.633877 -38.46959,19.372847 -1.969,3.655 -15.788441,32.61778 -12.135441,34.58678 3.654001,1.968 23.397441,-23.80478 25.366441,-27.45778 3.571,-6.628 7.302,-12.201 11.091,-16.563 25.537,-29.404 23.25136,18.10048 52.00436,28.51648 13.854,5.019 37.97364,23.75696 55.43387,17.24848 37.32899,10.94549 80.93657,-78.723485 137.11083,-36.56059 25.267,29.094 37.98894,90.88663 44.86694,136.95663 -9.703,10.096 -31.298,19.618 -60.147,26.411 -4.04,0.952 -38.544,15.84546 -37.593,19.88446 0.952,4.041 37.006,-4.30646 41.037,-5.25446 19.23,-4.529 43.085,-11.999 59.151,-23.474 1.522,11.759 2.382,20.226 2.686,23.379 0.02,0.212 0.051,0.425 0.089,0.634 0.119,0.652 0.18,1.275 0.18,1.853 0,10.859 -18.264,23.249 -47.665,32.337 -33.454,10.339 -78.074,16.032 -125.642,16.032 -47.568,0 -92.188,-5.694 -125.642,-16.032 -29.401,-9.087 -47.665,-21.477 -47.665,-32.337 0,-0.577 0.056,-1.171 0.172,-1.816 0.036,-0.201 0.064,-0.403 0.083,-0.606 0.378,-3.931 1.237,-12.295 2.672,-23.472 15.333,10.951 37.693,18.21 55.73,22.67 32.914,8.136 72.56,12.436 114.65,12.436 28.453,0 55.737,-1.963 81.094,-5.834 4.103,-0.626 6.921,-4.46 6.295,-8.563 -0.626,-4.103 -4.465,-6.921 -8.563,-6.294 -24.609,3.756 -51.129,5.661 -78.826,5.661 -87.814,0 -149.695,-18.579 -167.946,-37.657 4.479,-30.149 12.077,-70.582 23.896,-103.321 1.41,-3.904 -0.612,-8.21 -4.516,-9.62 -3.904,-1.41 -8.211,0.613 -9.62,4.517 C 82.842,188.356 74.475,241.416 70.558,272.208 24.372,288.813 0,310.476 0,335.005 c 0,21.919 20.46,44.191 57.612,62.713 0.12,0.06 0.242,0.116 0.365,0.17 l 25.78,11.169 c 0.111,0.048 0.222,0.093 0.335,0.136 48.733,18.384 109.785,28.509 171.908,28.509 65.35,0 128.748,-11.039 178.514,-31.084 C 483.757,386.784 512,360.682 512,335.005 512,310.478 487.632,288.816 441.45,272.211 Z M 428.898,392.677 C 380.875,412.021 317.70928,422.5079 255,422.5079 c -59.56156,0 -117.94742,-9.63976 -164.435,-27.1488 L 64.138,384.178 C 32.925,368.582 15.029,350.665 15.029,335.004 c 0,-16.066 19.351,-32.556 53.56,-46 -0.248,2.331 -0.439,4.235 -0.575,5.636 -0.233,1.399 -0.351,2.792 -0.351,4.143 0,18.77 20.145,34.917 58.257,46.696 34.852,10.771 81.048,16.703 130.079,16.703 49.031,0 95.227,-5.932 130.079,-16.703 38.112,-11.779 58.257,-27.926 58.257,-46.696 0,-1.376 -0.123,-2.795 -0.366,-4.223 -0.147,-1.511 -0.335,-3.383 -0.565,-5.557 34.212,13.444 53.565,29.935 53.565,46.002 0.002,18.662 -26.082,40.76 -68.071,57.672 z"
     id="path10"
     style="fill:#000000"
     inkscape:connector-curvature="0"
     sodipodi:nodetypes="ccccsccccccccccccccccscscsccccscscsccsccsccccscsccsccsccscscscccc" />
</svg>
